{
	"asset":{
		"copyright":"Thorsten Seyschab < https://todde.tv/ >",
		"generator":"Khronos glTF Blender I/O v4.3.47",
		"version":"2.0"
	},
	"scene":0,
	"scenes":[
		{
			"name":"Scene",
			"nodes":[
				0
			]
		}
	],
	"nodes":[
		{
			"mesh":0,
			"name":"benchy",
			"scale":[
				0.10000000149011612,
				0.10000000149011612,
				0.10000000149011612
			]
		}
	],
	"meshes":[
		{
			"name":"3dbenchy.001",
			"primitives":[
				{
					"attributes":{
						"POSITION":0,
						"NORMAL":1
					},
					"indices":2
				}
			]
		}
	],
	"accessors":[
		{
			"bufferView":0,
			"componentType":5126,
			"count":635824,
			"max":[
				30.825000762939453,
				48,
				15.501999855041504
			],
			"min":[
				-29.176000595092773,
				0,
				-15.501999855041504
			],
			"type":"VEC3"
		},
		{
			"bufferView":1,
			"componentType":5126,
			"count":635824,
			"type":"VEC3"
		},
		{
			"bufferView":2,
			"componentType":5125,
			"count":675462,
			"type":"SCALAR"
		}
	],
	"bufferViews":[
		{
			"buffer":0,
			"byteLength":7629888,
			"byteOffset":0,
			"target":34962
		},
		{
			"buffer":0,
			"byteLength":7629888,
			"byteOffset":7629888,
			"target":34962
		},
		{
			"buffer":0,
			"byteLength":2701848,
			"byteOffset":15259776,
			"target":34963
		}
	],
	"buffers":[
		{
			"byteLength":17961624,
			"uri":"benchy.bin"
		}
	]
}
